<?xml version="1.0" standalone="no"?>
<!DOCTYPE svg PUBLIC "-//W3C//DTD SVG 20010904//EN"
 "http://www.w3.org/TR/2001/REC-SVG-20010904/DTD/svg10.dtd">
<svg version="1.0" xmlns="http://www.w3.org/2000/svg"
 width="256.000000pt" height="256.000000pt" viewBox="0 0 256.000000 256.000000"
 preserveAspectRatio="xMidYMid meet">

<g transform="translate(0.000000,256.000000) scale(0.100000,-0.100000)"
fill="#000000" stroke="none">
<path d="M1116 2549 c-365 -50 -698 -258 -899 -560 -52 -79 -130 -229 -122
-237 2 -2 83 6 182 18 98 12 214 25 258 31 44 5 136 16 205 24 165 20 193 19
214 -4 17 -19 128 -359 130 -398 1 -13 4 -23 8 -23 5 0 7 -3 6 -7 -1 -5 4 -20
10 -36 7 -15 14 -39 16 -52 3 -14 8 -30 12 -36 4 -8 3 -9 -4 -5 -8 5 -12 -1
-12 -14 0 -16 4 -20 16 -16 8 3 12 2 9 -4 -3 -6 -13 -10 -22 -10 -9 0 -13 -6
-9 -15 3 -8 2 -15 -3 -15 -15 0 -21 13 -11 25 7 9 6 16 -4 24 -11 10 -14 0
-13 -59 0 -86 -14 -114 -67 -135 -23 -9 -43 -16 -45 -15 -2 1 -8 -4 -12 -12
-6 -8 -9 -9 -9 -2 0 7 -18 14 -40 16 -42 4 -54 -6 -20 -17 11 -3 20 -11 20
-16 0 -13 -18 -11 -23 4 -3 6 -6 1 -7 -13 l-2 -25 -10 28 c-5 15 -16 27 -24
27 -18 0 -31 -30 -16 -39 13 -8 -7 -37 -25 -36 -17 0 -29 15 -11 15 10 0 14
10 14 33 -1 19 4 31 11 30 20 -4 23 25 2 30 -14 4 -19 0 -19 -15 0 -10 -4 -17
-9 -14 -4 3 -7 16 -6 28 1 13 0 15 -2 5 -5 -20 -19 -23 -26 -4 -3 9 -8 9 -17
1 -9 -9 -5 -14 18 -22 28 -10 31 -18 23 -64 -2 -12 -41 -9 -41 2 0 6 5 10 11
10 5 0 7 5 4 11 -5 6 -13 2 -22 -11 -12 -17 -18 -19 -29 -9 -8 6 -14 10 -15 8
-8 -38 -7 -40 7 -28 11 9 14 7 14 -10 0 -12 -6 -21 -13 -20 -6 1 -19 -1 -27
-4 -8 -3 -34 -8 -57 -10 -33 -3 -43 -1 -46 12 -4 15 -5 14 -6 0 -1 -12 -14
-19 -43 -23 -186 -27 -245 -28 -263 -2 -8 10 -42 105 -76 210 -97 302 -148
452 -148 436 -1 -8 12 -55 28 -105 16 -49 48 -151 71 -225 23 -74 53 -172 67
-216 l26 -81 -25 -63 -25 -64 -58 180 c-31 98 -70 217 -86 264 l-29 85 5 -103
c16 -308 138 -588 355 -816 185 -193 408 -315 680 -373 117 -24 363 -24 480 0
465 98 823 413 973 857 52 153 77 357 62 496 l-8 69 -28 -85 c-15 -47 -62
-193 -105 -325 -42 -132 -81 -243 -87 -246 -5 -4 -7 -12 -3 -18 9 -14 -29 -51
-54 -51 -10 0 -24 8 -30 18 -11 16 -11 16 -6 0 3 -11 0 -18 -8 -18 -21 0 -819
99 -843 105 -25 6 -32 18 -62 91 l-19 50 82 -13 c44 -6 97 -12 116 -11 19 0
-14 7 -75 15 -170 22 -168 -19 -26 434 67 211 125 394 131 406 5 12 20 29 33
38 22 14 52 12 398 -30 206 -25 403 -50 439 -54 36 -5 67 -7 69 -5 2 2 -13 38
-33 81 -172 361 -512 626 -911 708 -96 20 -314 28 -409 14z m38 -1354 c3 -8 1
-15 -3 -15 -5 0 -11 7 -15 15 -3 8 -1 15 3 15 5 0 11 -7 15 -15z m-37 -30 c0
-8 -4 -15 -9 -15 -10 0 -11 14 -1 23 9 10 10 9 10 -8z m-267 -221 c0 -8 -4
-12 -10 -9 -5 3 -10 10 -10 16 0 5 5 9 10 9 6 0 10 -7 10 -16z m-76 -3 c7 -10
-17 -21 -42 -21 -15 1 -14 3 2 15 23 17 33 19 40 6z m26 -41 c0 -5 -2 -10 -4
-10 -3 0 -8 5 -11 10 -3 6 -1 10 4 10 6 0 11 -4 11 -10z m-502 -56 c2 -1 -6
-22 -17 -47 -12 -25 -21 -50 -21 -56 0 -17 -17 -22 -44 -11 -32 12 -33 37 -4
106 l21 52 31 -21 c17 -12 32 -23 34 -23z m362 32 c0 -9 7 -12 20 -9 11 3 20
9 20 14 0 5 7 9 15 9 8 0 15 -4 15 -9 0 -5 8 -12 18 -14 15 -4 15 -5 0 -6 -9
0 -20 3 -23 9 -4 6 -11 5 -20 -3 -9 -8 -10 -16 -3 -25 6 -7 9 -15 6 -17 -8 -9
-38 6 -32 16 3 5 -2 9 -10 9 -9 0 -16 -5 -16 -12 0 -8 -6 -6 -17 5 -9 9 -13
20 -9 24 4 4 11 1 16 -7 8 -13 10 -12 10 2 0 9 -6 19 -12 21 -8 3 -6 6 5 6 9
1 17 -5 17 -13z m-60 -21 c10 -26 45 -49 60 -40 5 3 12 0 16 -7 4 -7 4 -10 -1
-6 -4 4 -17 3 -28 -3 -14 -8 -17 -8 -13 0 4 6 -4 13 -19 17 -14 3 -25 10 -25
15 0 5 -5 9 -11 9 -6 0 -9 -6 -6 -14 3 -8 -1 -20 -9 -27 -12 -10 -12 -14 -2
-20 7 -5 9 -9 3 -10 -5 0 -19 -2 -30 -4 -80 -15 -108 -9 -67 14 14 8 15 12 5
22 -11 11 -13 10 -13 -4 0 -9 -3 -16 -7 -16 -26 4 -35 -2 -24 -15 13 -16 7
-19 -62 -31 -31 -5 -37 -3 -32 7 6 10 5 11 -6 1 -15 -15 -49 -17 -49 -4 0 21
13 40 23 34 5 -3 7 -1 4 4 -4 6 -2 25 4 42 12 33 19 36 144 46 38 4 71 7 72 9
2 2 17 3 34 4 23 0 32 -5 39 -23z m177 -7 c-3 -8 -6 -5 -6 6 -1 11 2 17 5 13
3 -3 4 -12 1 -19z m-167 -68 c8 -5 11 -10 5 -10 -5 0 -17 5 -25 10 -8 5 -10
10 -5 10 6 0 17 -5 25 -10z m60 0 c0 -5 -2 -10 -4 -10 -3 0 -8 5 -11 10 -3 6
-1 10 4 10 6 0 11 -4 11 -10z"/>
<path d="M495 840 c3 -5 8 -10 11 -10 2 0 4 5 4 10 0 6 -5 10 -11 10 -5 0 -7
-4 -4 -10z"/>
<path d="M525 830 c-3 -5 3 -10 14 -10 12 0 21 5 21 10 0 6 -6 10 -14 10 -8 0
-18 -4 -21 -10z"/>
<path d="M520 790 c0 -5 5 -10 10 -10 6 0 10 5 10 10 0 6 -4 10 -10 10 -5 0
-10 -4 -10 -10z"/>
<path d="M490 780 c0 -5 5 -10 11 -10 5 0 7 5 4 10 -3 6 -8 10 -11 10 -2 0 -4
-4 -4 -10z"/>
<path d="M1070 1355 c7 -9 15 -13 17 -11 7 7 -7 26 -19 26 -6 0 -6 -6 2 -15z"/>
<path d="M1045 1320 c3 -5 8 -10 11 -10 2 0 4 5 4 10 0 6 -5 10 -11 10 -5 0
-7 -4 -4 -10z"/>
<path d="M1905 1318 c-2 -7 -18 -58 -36 -113 -17 -55 -37 -110 -45 -122 -18
-28 -48 -30 -67 -3 -12 17 -18 18 -50 8 -43 -13 -44 -16 -16 -51 41 -53 145
-54 193 -2 12 13 40 80 62 153 l41 130 -30 6 c-41 8 -47 8 -52 -6z"/>
<path d="M1003 1295 c0 -8 4 -12 9 -9 5 3 6 10 3 15 -9 13 -12 11 -12 -6z"/>
<path d="M2054 1266 c-26 -26 -34 -43 -34 -69 0 -35 19 -58 94 -110 31 -22 33
-42 5 -57 -27 -15 -70 -4 -90 22 -14 19 -20 19 -52 9 -36 -12 -37 -13 -22 -40
39 -77 198 -82 249 -9 20 28 20 77 1 105 -8 11 -35 33 -60 47 -52 31 -60 62
-20 72 17 4 32 1 44 -10 13 -12 27 -15 46 -10 39 10 43 33 11 61 -21 18 -39
23 -83 23 -49 0 -59 -4 -89 -34z"/>
<path d="M1050 1225 c0 -8 4 -15 10 -15 5 0 7 7 4 15 -4 8 -8 15 -10 15 -2 0
-4 -7 -4 -15z"/>
<path d="M938 1163 c7 -3 16 -2 19 1 4 3 -2 6 -13 5 -11 0 -14 -3 -6 -6z"/>
<path d="M907 1143 c-11 -10 -8 -20 6 -26 8 -3 14 3 14 14 2 19 -8 25 -20 12z"/>
<path d="M958 1143 c6 -2 9 -10 6 -15 -4 -7 -2 -8 5 -4 13 9 5 26 -12 25 -9 0
-8 -2 1 -6z"/>
<path d="M655 930 c-3 -5 -1 -10 4 -10 6 0 11 5 11 10 0 6 -2 10 -4 10 -3 0
-8 -4 -11 -10z"/>
<path d="M1558 933 c12 -2 30 -2 40 0 9 3 -1 5 -23 4 -22 0 -30 -2 -17 -4z"/>
<path d="M1638 923 c12 -2 30 -2 40 0 9 3 -1 5 -23 4 -22 0 -30 -2 -17 -4z"/>
<path d="M2258 900 c-16 -29 -16 -29 3 -17 10 6 19 20 19 29 0 24 -2 23 -22
-12z"/>
<path d="M1723 913 c9 -2 25 -2 35 0 9 3 1 5 -18 5 -19 0 -27 -2 -17 -5z"/>
<path d="M1803 903 c9 -2 25 -2 35 0 9 3 1 5 -18 5 -19 0 -27 -2 -17 -5z"/>
<path d="M1878 893 c12 -2 30 -2 40 0 9 3 -1 5 -23 4 -22 0 -30 -2 -17 -4z"/>
<path d="M1973 883 c9 -2 23 -2 30 0 6 3 -1 5 -18 5 -16 0 -22 -2 -12 -5z"/>
<path d="M2043 873 c9 -2 23 -2 30 0 6 3 -1 5 -18 5 -16 0 -22 -2 -12 -5z"/>
<path d="M2133 863 c9 -2 23 -2 30 0 6 3 -1 5 -18 5 -16 0 -22 -2 -12 -5z"/>
<path d="M2186 845 c4 -8 8 -15 10 -15 2 0 4 7 4 15 0 8 -4 15 -10 15 -5 0 -7
-7 -4 -15z"/>
</g>
</svg>
